<?xml version="1.0" encoding="iso-8859-1"?>
<!-- Generator: Adobe Illustrator 19.0.0, SVG Export Plug-In . SVG Version: 6.00 Build 0)  -->
<svg version="1.1" id="Layer_1" xmlns="http://www.w3.org/2000/svg" xmlns:xlink="http://www.w3.org/1999/xlink" x="0px" y="0px"
	 viewBox="0 0 512 512" style="enable-background:new 0 0 512 512;" xml:space="preserve">
<path style="fill:#4C1B27;" d="M256,512C114.841,512,0,397.159,0,256S114.841,0,256,0s256,114.841,256,256
	c0,72.491-30.933,141.886-84.864,190.393c-6.023,5.416-15.295,4.925-20.713-1.097c-5.415-6.022-4.925-15.295,1.097-20.712
	c47.756-42.953,75.147-104.4,75.147-168.585c0-124.985-101.683-226.667-226.667-226.667S29.333,131.015,29.333,256
	S131.015,482.667,256,482.667c23.52,0,46.695-3.583,68.88-10.651c7.714-2.457,15.969,1.804,18.425,9.523
	c2.46,7.717-1.804,15.967-9.523,18.425C308.715,507.951,282.544,512,256,512z"/>
<circle style="fill:#D46366;" cx="158.851" cy="132.085" r="33.353"/>
<path style="fill:#4C1B27;" d="M158.851,180.109c-26.477,0-48.017-21.542-48.017-48.019s21.542-48.019,48.017-48.019
	c26.479,0,48.019,21.542,48.019,48.019S185.328,180.109,158.851,180.109z M158.851,113.404c-10.303,0-18.685,8.382-18.685,18.686
	c0,10.305,8.382,18.686,18.685,18.686s18.686-8.382,18.686-18.686C177.537,121.786,169.154,113.404,158.851,113.404z"/>
<circle style="fill:#D46366;" cx="322.688" cy="298.474" r="33.353"/>
<path style="fill:#4C1B27;" d="M322.693,346.492c-26.479,0-48.019-21.542-48.019-48.019c0-26.477,21.542-48.019,48.019-48.019
	c26.477,0,48.017,21.542,48.017,48.019C370.711,324.951,349.171,346.492,322.693,346.492z M322.693,279.789
	c-10.303,0-18.686,8.382-18.686,18.686c0,10.305,8.383,18.686,18.686,18.686c10.303,0,18.685-8.382,18.685-18.686
	C341.378,288.171,332.998,279.789,322.693,279.789z"/>
<circle style="fill:#D46366;" cx="316.777" cy="151.224" r="56.553"/>
<path style="fill:#4C1B27;" d="M316.776,222.444c-39.27,0-71.221-31.949-71.221-71.219s31.949-71.221,71.221-71.221
	s71.221,31.949,71.221,71.221C387.997,190.495,356.048,222.444,316.776,222.444z M316.776,109.337
	c-23.096,0-41.888,18.79-41.888,41.888c0,23.096,18.792,41.887,41.888,41.887s41.888-18.79,41.888-41.887
	C358.664,128.128,339.872,109.337,316.776,109.337z"/>
<circle style="fill:#D46366;" cx="168.794" cy="271.458" r="44.791"/>
<path style="fill:#4C1B27;" d="M168.794,330.915c-32.785,0-59.457-26.674-59.457-59.459S136.011,212,168.794,212
	s59.457,26.672,59.457,59.457S201.578,330.915,168.794,330.915z M168.794,241.334c-16.611,0-30.125,13.514-30.125,30.125
	c0,16.611,13.514,30.126,30.125,30.126s30.125-13.514,30.125-30.126C198.919,254.847,185.405,241.334,168.794,241.334z"/>
<g>
</g>
<g>
</g>
<g>
</g>
<g>
</g>
<g>
</g>
<g>
</g>
<g>
</g>
<g>
</g>
<g>
</g>
<g>
</g>
<g>
</g>
<g>
</g>
<g>
</g>
<g>
</g>
<g>
</g>
</svg>
